<svg width="206" height="67" viewBox="0 0 206 67" fill="none" xmlns="http://www.w3.org/2000/svg">
<g clip-path="url(#clip0_2386_5914)">
<path d="M163.999 0.0115627C161.005 0.00867202 158.013 0.00433601 155.019 0C155.191 8.30346 155.282 16.8411 155.276 25.5998C155.269 34.4409 155.164 43.058 154.975 51.4352C157.968 51.4381 160.962 51.4438 163.956 51.4467C163.781 43.0681 163.69 34.4525 163.699 25.6099C163.706 16.8512 163.812 8.31502 163.999 0.0115627Z" fill="#0A0A0A"/>
<path d="M67.9043 2.75049C65.9783 2.75049 64.533 3.23757 63.6102 4.19438C62.6688 5.16854 62.2109 6.41586 62.2109 8.00862C62.2109 9.53056 62.686 10.7707 63.6619 11.8012C64.6249 12.8086 66.0529 13.3217 67.9043 13.3217C69.8561 13.3217 71.3085 12.8201 72.2212 11.833C73.1498 10.8227 73.6019 9.57103 73.6019 8.01007C73.6019 6.41297 73.1527 5.1642 72.227 4.19293C71.3171 3.23612 69.8633 2.75049 67.9043 2.75049Z" fill="#19BE7E"/>
<path d="M137.592 33.1964C141.759 29.1365 145.552 26.2082 149.718 22.1483C149.003 22.1483 144.428 22.1425 143.713 22.1425C143.077 22.1411 138.7 22.1367 138.064 22.1353C136.193 23.8914 134.23 25.6691 132.172 27.4599C129.676 29.6323 127.217 31.6687 124.814 33.5795C124.775 31.1022 124.747 27.8588 124.732 25.3541C124.676 16.6632 124.755 9.25156 124.956 0.864279C121.431 0.841153 119.776 0.816582 116.251 0.793457C116.445 8.5448 116.551 15.3393 116.558 23.4289C116.567 32.8539 116.439 42.0564 116.195 51.0247C117.781 50.9741 119.407 50.9466 121.071 50.9437C123.073 50.9394 123.149 50.9726 125.04 51.0362C124.989 48.7222 124.994 46.2955 124.956 43.9555C127.054 42.0997 129.153 40.2439 131.252 38.3895C132.253 39.7959 133.254 41.2195 134.255 42.662C136.169 45.4168 138.02 48.1499 139.812 50.8585C139.812 50.8585 139.812 50.8599 139.814 50.8599C143.319 50.87 146.823 50.8816 150.328 50.8946C147.557 46.9604 144.732 43.0059 141.853 39.0342C140.432 37.0743 139.013 35.1274 137.592 33.1964Z" fill="#0A0A0A"/>
<path d="M52.1425 2.75049C50.2165 2.75049 48.7713 3.23757 47.8485 4.19438C46.907 5.16854 46.4492 6.41586 46.4492 8.00862C46.4492 9.53056 46.9243 10.7707 47.9002 11.8012C48.8632 12.8086 50.2912 13.3217 52.1425 13.3217C54.0944 13.3217 55.5468 12.8201 56.4595 11.833C57.3881 10.8227 57.8402 9.57103 57.8402 8.01007C57.8402 6.41297 57.391 5.1642 56.4653 4.19293C55.5539 3.23612 54.1001 2.75049 52.1425 2.75049Z" fill="#19BE7E"/>
<path d="M47.6094 17.9597C47.7184 21.5441 47.7974 23.9044 47.8433 26.6129C47.8907 29.3518 47.8892 31.4143 47.8907 32.5084C47.8993 39.3507 47.7299 46.0874 47.6094 50.0939C49.0905 50.0606 50.6017 50.0418 52.1431 50.0418C53.6844 50.0418 55.1957 50.0592 56.6782 50.0939C56.5577 46.0874 56.3883 39.3521 56.3969 32.5084C56.3984 31.4158 56.3984 29.3533 56.4443 26.6129C56.4902 23.9029 56.5691 21.5441 56.6782 17.9583C53.6543 17.9597 50.6318 17.9597 47.6094 17.9597Z" fill="#0A0A0A"/>
<path d="M63.373 18.1548C63.4821 21.7392 63.5611 24.0994 63.607 26.808C63.6543 29.5469 63.6529 31.6094 63.6543 32.7035C63.6629 39.5457 63.4936 46.2824 63.373 50.2889C64.8541 50.2557 66.3654 50.2369 67.9067 50.2369C69.4481 50.2369 70.9594 50.2542 72.4419 50.2889C72.3213 46.2824 72.152 39.5472 72.1606 32.7035C72.162 31.6108 72.162 29.5483 72.208 26.808C72.2539 24.098 72.3328 21.7392 72.4419 18.1533C69.4194 18.1548 66.3955 18.1548 63.373 18.1548Z" fill="#0A0A0A"/>
<path d="M205.319 31.7439C203.701 26.4106 199.683 23.4795 198.016 22.4316C193.689 19.7115 189.28 19.6652 187.381 19.6464C186.823 19.6406 186.402 19.658 186.306 19.6623C184.887 19.723 177.341 20.0468 172.437 26.0146C171.573 27.0668 168.707 30.6613 168.69 35.944C168.671 41.4363 171.741 45.2665 172.493 46.1669C172.741 46.4646 172.949 46.6945 173.096 46.852C177.728 51.8847 183.988 52.2807 187.381 52.4946C189.987 52.6594 194.619 52.6709 199.573 50.0274C201.965 48.7497 203.775 47.1136 204.966 45.1537C201.677 43.931 198.886 42.7631 196.652 41.6734C195.732 42.6894 194.603 43.5147 193.285 44.1319C192.694 44.4079 192.087 44.6348 191.467 44.8141C191.252 44.8762 189.699 45.3142 187.925 45.3098C186.348 45.3055 183.449 45.2983 181.098 43.2372C178.401 40.8726 178.251 37.4067 178.233 36.6985C187.487 36.7043 196.741 36.7101 205.995 36.7144C206.021 35.522 205.929 33.7544 205.319 31.7439ZM178.981 31.4346C179.598 29.0874 181.6 27.8198 182.283 27.3877C185.778 25.1734 191.799 25.4581 194.721 29.083C195.755 30.3665 196.162 31.7714 196.335 32.7542C190.49 32.7542 184.644 32.7542 178.797 32.7542C178.805 32.4333 178.842 31.9694 178.981 31.4346Z" fill="#0A0A0A"/>
<path d="M42.8987 29.4517C42.6231 28.2 41.5668 23.4145 37.5383 20.0266C31.3542 14.8263 23.1895 17.1432 22.4145 17.3773C16.1284 19.2722 13.1562 24.3279 12.9409 24.9017C12.5907 25.8325 12.2822 26.8992 12.2822 26.8992C12.2822 26.9006 12.2808 26.905 12.2808 26.9064L9.82087 17.2501V17.2516V17.2501H0C0.218146 25.5825 0.331524 34.1172 0.325784 42.847C0.318608 51.0739 0.206665 59.1273 0 67C1.54998 66.9509 3.14015 66.922 4.7662 66.9177C6.72377 66.9119 8.62968 66.9422 10.4782 67C10.3519 56.7772 10.2242 47.6687 10.0979 38.3896C10.5327 39.9087 11.9205 44.0033 15.9304 47.2004C16.8188 47.9086 19.6518 50.0217 23.9056 50.6923C25.5432 50.951 32.3674 51.7373 37.8856 46.8622C42.4165 42.8586 43.3206 37.4285 43.3134 33.6908C43.3091 31.7165 43.0565 30.1671 42.8987 29.4517ZM29.6162 42.7892C27.5553 44.0423 25.5546 44.0842 24.7926 44.0915C24.0563 44.0973 21.9265 44.103 19.9403 42.8889C15.9878 40.4738 15.8644 34.9483 15.8629 34.0262C15.8601 32.828 16.0251 27.6089 19.8154 25.211C21.7931 23.9594 23.9917 23.9608 24.7926 23.9623C25.3853 23.9623 27.5897 23.9652 29.4167 25.0333C34.6206 28.4515 34.0738 39.5777 29.6162 42.7892Z" fill="#0A0A0A"/>
<path d="M87.6836 28.2245C91.2486 24.8063 97.0122 25.662 100.373 27.3371C101.514 27.9051 102.375 28.5671 102.962 29.0831C105.622 28.3373 108.283 27.5915 110.942 26.8442C109.35 24.3178 107.551 22.7409 106.364 21.8492C102.274 18.7822 97.915 18.2315 95.989 18.1187C95.9746 18.1173 95.9158 18.1144 95.8426 18.1101C93.2478 17.9757 86.5699 17.6664 81.5971 22.6484C78.6004 25.6504 77.082 29.6785 77.082 34.6201C77.082 36.2057 77.1724 42.0318 81.5956 46.5919C86.2441 51.3832 92.4039 51.4034 95.1078 51.4121C96.9764 51.4178 102.295 51.36 107.239 47.6701C109.396 46.06 110.791 44.275 111.625 43.0219C108.73 42.0737 105.836 41.1256 102.941 40.1775C102.45 40.6747 101.715 41.3193 100.712 41.8786C96.398 44.2837 89.6656 43.6665 86.6388 39.5936C85.0673 37.479 85.0042 35.1188 85.0027 34.5551C85.0013 34.2863 85.0458 30.7524 87.6836 28.2245Z" fill="#0A0A0A"/>
</g>
<defs>
<clipPath id="clip0_2386_5914">
<rect width="206" height="67" fill="white"/>
</clipPath>
</defs>
</svg>
